<svg width="870" height="521" viewBox="0 0 870 521" fill="none" xmlns="http://www.w3.org/2000/svg">
<g clip-path="url(#clip0_105_2)">
<path d="M616.411 512.511C605.273 503.1 598.507 488.232 600.281 473.758C602.056 459.284 613.045 445.978 627.3 442.904C641.554 439.83 657.804 448.339 662.133 462.264C664.516 435.417 667.262 407.446 681.535 384.584C694.459 363.883 716.844 349.07 741.104 346.42C765.364 343.77 790.907 353.779 806.037 372.927C821.167 392.075 824.871 419.912 814.275 441.896C806.468 458.091 792.087 470.143 777.018 479.948C728.326 511.365 669.927 524.141 612.564 515.925L616.411 512.511Z" fill="#F2F2F2"/>
<path d="M831.728 356.079C811.71 372.383 793.346 390.619 776.902 410.521C751.166 441.562 730.34 476.364 715.15 513.715C714.038 516.44 718.462 517.626 719.562 514.932C744.416 454.228 784.093 400.724 834.963 359.314C837.248 357.454 833.993 354.234 831.728 356.079Z" fill="white"/>
<path d="M280.067 511.699C295.366 498.772 304.658 478.351 302.221 458.471C299.784 438.591 284.69 420.315 265.112 416.094C245.533 411.872 223.214 423.558 217.267 442.684C213.995 405.81 210.223 367.392 190.619 335.991C172.868 307.558 142.122 287.213 108.801 283.573C75.4801 279.933 40.3972 293.68 19.6161 319.98C-1.1651 346.28 -6.25327 384.515 8.30131 414.709C19.0232 436.952 38.7766 453.506 59.4733 466.973C125.503 509.939 207.412 527.858 285.351 516.388" fill="#F2F2F2"/>
<path d="M52.5666 294.442C80.0607 316.836 105.284 341.883 127.87 369.219C150.461 396.526 170.349 425.961 187.257 457.109C196.707 474.582 205.196 492.557 212.687 510.956C214.214 514.698 208.137 516.327 206.627 512.626C193.359 480.19 176.944 449.133 157.618 419.899C138.385 390.772 116.372 363.578 91.8889 338.701C78.0409 324.637 63.4301 311.346 48.1226 298.886C44.985 296.331 49.455 291.908 52.5666 294.442L52.5666 294.442Z" fill="white"/>
<path d="M624.5 519H259.5V144.5C259.5 64.8223 324.322 0 404 0H480C559.678 0 624.5 64.8223 624.5 144.5V519Z" fill="#F2F2F2"/>
<path d="M548.5 519H259.5V144.5C259.42 113.969 269.088 84.2103 287.096 59.5557C287.76 58.6509 288.422 57.7578 289.104 56.8745C297.815 45.4506 308.18 35.3897 319.859 27.0239C320.518 26.5439 321.181 26.0723 321.853 25.6006C331.625 18.838 342.196 13.3097 353.325 9.1416C353.986 8.89111 354.659 8.64013 355.332 8.3994C365.397 4.80747 375.83 2.34703 386.44 1.06348C387.098 0.973628 387.773 0.903319 388.448 0.833009C398.787 -0.272461 409.215 -0.272461 419.554 0.833009C420.227 0.903319 420.902 0.973619 421.568 1.06444C432.175 2.34807 442.606 4.80822 452.668 8.39945C453.341 8.64018 454.014 8.89114 454.677 9.14212C465.669 13.2577 476.115 18.7035 485.783 25.3579C486.455 25.8194 487.127 26.2911 487.79 26.7627C494.336 31.4355 500.485 36.6412 506.173 42.3267C510.735 46.8871 514.986 51.7483 518.898 56.8775C519.578 57.7579 520.24 58.6509 520.903 59.5543C538.911 84.2091 548.58 113.969 548.5 144.5V519Z" fill="#CCCCCC"/>
<path d="M525 351.5C533.837 351.5 541 344.337 541 335.5C541 326.663 533.837 319.5 525 319.5C516.163 319.5 509 326.663 509 335.5C509 344.337 516.163 351.5 525 351.5Z" fill="#6C63FF"/>
<path d="M594.599 507.783H582.339L576.506 460.495L594.601 460.496L594.599 507.783Z" fill="#FFB8B8"/>
<path d="M573.582 504.28H597.226V519.167H558.695C558.695 517.212 559.08 515.276 559.828 513.47C560.576 511.664 561.673 510.022 563.055 508.64C564.437 507.258 566.079 506.161 567.885 505.413C569.691 504.665 571.627 504.28 573.582 504.28V504.28Z" fill="#2F2E41"/>
<path d="M655.599 507.783H643.339L637.506 460.495L655.601 460.496L655.599 507.783Z" fill="#FFB8B8"/>
<path d="M634.582 504.28H658.226V519.167H619.695C619.695 517.212 620.08 515.276 620.828 513.47C621.576 511.664 622.673 510.022 624.055 508.64C625.437 507.258 627.079 506.161 628.885 505.413C630.691 504.665 632.627 504.28 634.582 504.28V504.28Z" fill="#2F2E41"/>
<path d="M533.098 338.67C532.216 337.37 531.629 335.893 531.38 334.343C531.131 332.792 531.224 331.206 531.654 329.695C532.084 328.185 532.84 326.787 533.869 325.6C534.898 324.413 536.174 323.467 537.608 322.827L579.284 207.96L599.791 219.151L552.206 328.922C553.122 331.403 553.096 334.133 552.133 336.595C551.17 339.058 549.337 341.082 546.982 342.283C544.626 343.485 541.912 343.781 539.353 343.115C536.794 342.449 534.568 340.867 533.098 338.67V338.67Z" fill="#FFB8B8"/>
<path d="M649.336 360.254C647.974 359.472 646.799 358.402 645.895 357.118C644.991 355.834 644.38 354.367 644.104 352.821C643.828 351.275 643.895 349.687 644.299 348.169C644.703 346.652 645.435 345.241 646.443 344.037L633.533 222.528L656.87 223.594L662.236 343.114C664.147 344.942 665.32 347.408 665.535 350.043C665.749 352.678 664.989 355.301 663.399 357.414C661.809 359.526 659.499 360.982 656.907 361.506C654.316 362.029 651.622 361.584 649.336 360.254V360.254Z" fill="#FFB8B8"/>
<path d="M612.106 186.684C625.67 186.684 636.667 175.687 636.667 162.123C636.667 148.558 625.67 137.562 612.106 137.562C598.541 137.562 587.545 148.558 587.545 162.123C587.545 175.687 598.541 186.684 612.106 186.684Z" fill="#FFB8B8"/>
<path d="M649.18 332.619H575.133L575.222 332.042C575.355 331.181 588.419 245.603 578.784 217.606C577.817 214.855 577.902 211.843 579.022 209.151C580.143 206.459 582.22 204.276 584.853 203.023H584.853C598.625 196.538 625.061 188.552 647.373 207.932C650.657 210.831 653.22 214.454 654.862 218.515C656.504 222.575 657.179 226.962 656.833 231.328L649.18 332.619Z" fill="#6C63FF"/>
<path d="M589.354 258.25L556.018 251.487L571.644 214.457C572.579 210.871 574.899 207.802 578.094 205.923C581.289 204.044 585.098 203.51 588.687 204.436C592.276 205.363 595.351 207.675 597.237 210.865C599.124 214.056 599.667 217.864 598.75 221.455L589.354 258.25Z" fill="#6C63FF"/>
<path d="M632.05 270.808L630.046 224.867C628.526 216.23 633.47 208.066 641.074 206.732C648.679 205.402 656.105 211.392 657.632 220.092L665.165 263.02L632.05 270.808Z" fill="#6C63FF"/>
<path d="M646.716 327.119C658.631 372.495 659.93 430.188 656.716 493.119L640.716 491.119L611.716 371.119L595.716 493.119L577.716 492.119C572.339 426.089 567.103 369.403 575.716 332.119L646.716 327.119Z" fill="#2F2E41"/>
<path d="M628.289 181.104C623.707 185.985 615.198 183.365 614.601 176.697C614.554 176.179 614.557 175.658 614.611 175.141C614.919 172.188 616.625 169.506 616.217 166.388C616.124 165.611 615.835 164.872 615.377 164.239C611.725 159.349 603.154 166.426 599.708 161.999C597.595 159.285 600.079 155.012 598.458 151.979C596.318 147.975 589.979 149.95 586.004 147.758C581.581 145.318 581.846 138.532 584.757 134.405C588.308 129.371 594.533 126.685 600.68 126.298C606.828 125.911 612.933 127.573 618.673 129.81C625.194 132.351 631.66 135.863 635.673 141.597C640.554 148.571 641.023 157.945 638.583 166.099C637.098 171.059 632.031 177.118 628.289 181.104Z" fill="#2F2E41"/>
<path d="M818.847 520H102.152C101.847 519.999 101.553 519.84 101.337 519.559C101.121 519.278 101 518.897 101 518.5C101 518.103 101.121 517.722 101.337 517.441C101.553 517.16 101.847 517.001 102.152 517H818.847C819.153 517.001 819.447 517.16 819.663 517.441C819.879 517.722 820 518.103 820 518.5C820 518.897 819.879 519.278 819.663 519.559C819.447 519.84 819.153 519.999 818.847 520V520Z" fill="#3F3D56"/>
<path d="M469 410.5H339C337.288 410.509 335.642 409.839 334.424 408.636C333.205 407.434 332.513 405.797 332.5 404.085V113.915C332.513 112.203 333.205 110.566 334.424 109.364C335.642 108.161 337.288 107.491 339 107.5H469C470.712 107.491 472.358 108.161 473.576 109.364C474.795 110.566 475.487 112.203 475.5 113.915V404.085C475.487 405.797 474.795 407.434 473.576 408.636C472.358 409.839 470.712 410.509 469 410.5V410.5Z" fill="white"/>
<path d="M475.5 201.39H332.5V203.39H475.5V201.39Z" fill="#CCCCCC"/>
<path d="M476 315.5H333V317.5H476V315.5Z" fill="#CCCCCC"/>
<path d="M379.5 107.5H377.5V411.5H379.5V107.5Z" fill="#CCCCCC"/>
<path d="M429.5 107.5H427.5V411.5H429.5V107.5Z" fill="#CCCCCC"/>
<path d="M228.375 186.75C271.108 186.75 305.75 152.108 305.75 109.375C305.75 66.6421 271.108 32 228.375 32C185.642 32 151 66.6421 151 109.375C151 152.108 185.642 186.75 228.375 186.75Z" fill="#6C63FF"/>
<path d="M260.431 143.089H196.32C195.148 143.088 194.024 142.621 193.195 141.792C192.366 140.964 191.9 139.84 191.898 138.667V99.9797C191.9 98.8074 192.366 97.6835 193.195 96.8546C194.024 96.0257 195.148 95.5595 196.32 95.5582H260.431C261.603 95.5595 262.727 96.0257 263.556 96.8546C264.385 97.6835 264.851 98.8074 264.852 99.9797V138.667C264.851 139.84 264.385 140.964 263.556 141.792C262.727 142.621 261.603 143.088 260.431 143.089ZM196.32 99.9797V138.667H260.434L260.431 99.9797L196.32 99.9797Z" fill="white"/>
<path d="M248.272 99.9797H208.479V82.2939C208.479 69.4841 216.847 60.1867 228.375 60.1867C239.904 60.1867 248.272 69.4841 248.272 82.2939L248.272 99.9797ZM212.9 95.5583H243.85V82.2939C243.85 71.8809 237.487 64.6082 228.375 64.6082C219.264 64.6082 212.9 71.881 212.9 82.2939L212.9 95.5583Z" fill="white"/>
<path d="M228.375 122.64C230.817 122.64 232.797 120.66 232.797 118.218C232.797 115.776 230.817 113.797 228.375 113.797C225.933 113.797 223.954 115.776 223.954 118.218C223.954 120.66 225.933 122.64 228.375 122.64Z" fill="white"/>
</g>
<defs>
<clipPath id="clip0_105_2">
<rect width="870" height="520.139" fill="white"/>
</clipPath>
</defs>
</svg>
